<?xml version="1.0" standalone="no"?>
<!DOCTYPE svg PUBLIC "-//W3C//DTD SVG 20010904//EN"
 "http://www.w3.org/TR/2001/REC-SVG-20010904/DTD/svg10.dtd">
<svg version="1.0" xmlns="http://www.w3.org/2000/svg"
 width="577.000000pt" height="577.000000pt" viewBox="0 0 577.000000 577.000000"
 preserveAspectRatio="xMidYMid meet">
<metadata>
Created by potrace 1.14, written by Peter Selinger 2001-2017
</metadata>
<g transform="translate(0.000000,577.000000) scale(0.100000,-0.100000)"
fill="#000000" stroke="none">
<path d="M2485 5029 c-121 -94 -229 -179 -239 -189 -19 -18 -8 -19 459 -19
452 0 476 1 459 17 -11 10 -111 89 -224 176 -113 88 -212 165 -220 172 -13 11
-48 -11 -235 -157z"/>
<path d="M4020 4821 c-70 -37 -93 -107 -60 -176 51 -105 201 -104 245 2 19 46
19 74 -1 117 -19 39 -78 76 -121 76 -15 0 -44 -8 -63 -19z m120 -17 c99 -59
69 -199 -48 -220 -31 -6 -87 22 -108 53 -67 103 51 228 156 167z"/>
<path d="M4039 4763 c-1 -9 -1 -101 0 -120 1 -7 5 -13 10 -13 5 0 7 14 6 30
-1 18 2 30 9 30 6 0 20 -13 29 -30 24 -39 42 -39 22 0 -14 28 -14 32 0 46 20
21 19 41 -4 54 -23 12 -71 14 -72 3z m66 -33 c0 -22 -47 -20 -51 3 -2 14 3 18
24 15 16 -2 27 -9 27 -18z"/>
<path d="M1657 4700 c-10 -4 -12 -175 -12 -800 2 -866 1 -854 59 -967 26 -52
90 -118 146 -151 54 -31 149 -52 246 -53 112 -1 172 7 243 33 133 50 207 130
250 273 20 67 20 91 21 867 0 756 -1 798 -17 798 -30 1 -306 2 -340 1 l-33 -1
-2 -799 c-3 -783 -3 -799 -23 -821 -50 -56 -127 -40 -151 30 -4 14 -9 374 -10
800 -1 426 -2 780 -3 785 -1 10 -350 15 -374 5z"/>
<path d="M2796 4700 c-6 -14 2 -1581 8 -1619 26 -157 118 -275 248 -321 146
-51 356 -42 483 22 96 48 145 104 196 223 21 49 23 125 26 888 3 652 1 807 -9
808 -22 1 -300 1 -340 0 l-38 -1 -2 -801 -3 -801 -32 -28 c-42 -38 -97 -30
-129 18 -17 25 -18 76 -18 819 l-1 793 -25 1 c-144 3 -362 3 -364 -1z"/>
<path d="M3165 2566 c-167 -32 -265 -119 -318 -279 -19 -59 -20 -88 -21 -672
-1 -335 1 -633 5 -662 25 -185 109 -297 267 -354 57 -20 85 -24 197 -24 135 0
180 9 280 56 94 44 181 167 204 289 11 59 10 1288 -1 1325 -36 118 -85 194
-159 244 -45 32 -123 65 -176 76 -54 12 -218 12 -278 1z m186 -323 c15 -9 33
-30 39 -47 7 -19 10 -237 10 -626 -1 -543 -2 -599 -18 -630 -34 -69 -137 -60
-158 13 -6 18 -10 290 -9 633 0 561 1 602 18 628 30 45 72 56 118 29z"/>
<path d="M1690 2502 c-1 -26 -2 -464 -3 -975 l-2 -927 196 0 196 0 0 307 0
308 69 2 c107 3 164 10 236 33 187 58 269 247 268 620 -1 399 -112 604 -362
667 -13 3 -152 7 -310 9 l-288 3 0 -47z m520 -285 c49 -25 53 -49 52 -335 0
-173 -5 -274 -12 -292 -15 -36 -43 -50 -112 -54 -53 -3 -58 -2 -59 18 -1 27
-1 659 0 669 1 12 104 8 131 -6z"/>
</g>
</svg>
